<?xml version="1.0" encoding="UTF-8"?>
<svg id="picto_-_noir" data-name="picto - noir" xmlns="http://www.w3.org/2000/svg" viewBox="0 0 468.74 232.93">
  <defs>
    <style>
      .cls-1 {
        fill: #1d1d1b;
      }
    </style>
  </defs>
  <path class="cls-1" d="M304.27,31.47s.02.04.03.06l-.08-.15s.03.06.05.09Z"/>
  <path class="cls-1" d="M149.47,31.53l-.07-.12s.02.04.03.07c.01.02.02.04.03.06Z"/>
  <path class="cls-1" d="M304.27,31.53l-.07-.12s.02.04.03.07c.01.02.02.04.03.06Z"/>
  <path class="cls-1" d="M408.04.6c-20.63,0-40.07,10.17-55.92,21.23h-.02V2.39l-2.99-2.39s-31.73,19.74-68.43,7.18c-3.18-1.09-16.94-6.58-27.49-6.58-20.63,0-40.07,10.17-55.92,21.23V2.39h.02l-2.99-2.39s-31.68,19.74-68.43,7.18c-3.18-1.09-16.94-6.58-27.49-6.58-20.63,0-40.07,10.17-55.92,21.23V2.39l-2.99-2.39L0,17.34v4.18c7.47,3.29,11.96,6.28,11.96,23.92v149.5c0,21.53-2.09,30.5-11.96,33.79v4.19h54.42v-4.19c-9.87-3.29-11.96-12.26-11.96-33.79v-49.93c10.47,5.98,23.03,9.87,36.78,9.87,49.03,0,79.83-36.48,79.83-82.23,0-15.54-3.4-29.65-9.64-41.19-.02-.03-.03-.06-.05-.09l.02.03c-7.47-13.98,17.39-18.4,17.39,14.04v149.5c0,21.53-2.09,30.5-11.96,33.79v4.19h54.42v-4.19h-.02c-9.87-3.29-11.96-12.26-11.96-33.79v-49.93c10.47,5.98,23.03,9.87,36.78,9.87,49.03,0,79.83-36.48,79.83-82.23,0-15.54-3.4-29.65-9.64-41.19-.02-.03-.03-.06-.05-.09l.02.03c-7.47-13.98,17.39-18.4,17.39,14.04v149.5c0,21.53-2.09,30.5-11.96,33.79v4.19h54.42v-4.19c-9.87-3.29-11.96-12.26-11.96-33.79v-49.93h.02c10.47,5.98,23.03,9.87,36.78,9.87,49.03,0,79.83-36.48,79.83-82.23,0-40.97-23.62-72.06-60.7-72.06ZM91.2,149.21c-22.12,0-48.74-26.31-48.74-46.94V26.91c10.47-8.07,21.83-14.06,34.98-14.06,44.55,0,53.52,55.62,53.52,82.53s-7.48,53.82-39.77,53.82ZM246,149.21c-22.12,0-48.74-26.31-48.74-46.94V26.91c10.47-8.07,21.83-14.06,34.98-14.06,44.55,0,53.52,55.62,53.52,82.53s-7.48,53.82-39.77,53.82ZM400.86,149.21c-22.12,0-48.74-26.31-48.74-46.94V26.91c10.47-8.07,21.83-14.06,34.98-14.06,44.55,0,53.52,55.62,53.52,82.53s-7.48,53.82-39.77,53.82ZM459.11,31.53s-.02-.04-.03-.06c-.02-.03-.03-.06-.05-.09l.08.15ZM459.1,85.26s-.03-.06-.05-.09l.08.15s-.02-.04-.03-.06ZM462.64,85.58l.08.15s-.02-.04-.03-.06c-.02-.03-.03-.06-.05-.09Z"/>
</svg>