<?xml version="1.0" encoding="UTF-8"?>
<svg id="Calque_1" data-name="Calque 1" xmlns="http://www.w3.org/2000/svg" viewBox="0 0 1728.85 437.89">
  <path d="M66.42,266.22v100.19c0,46.15,5.06,59.1,22.51,64.16v7.32H0v-7.32c16.89-5.06,22.52-18.01,22.52-64.16V84.99c0-39.4-7.32-45.03-22.52-51.79v-6.19L61.35,0l5.07,3.94v41.08C96.81,22.51,135.65.56,178.99.56c65.29,0,114.26,54.04,114.26,137.34,0,78.79-51.79,152.53-145.22,153.09-30.95,0-60.22-10.69-81.61-24.76ZM166.04,280.29c59.1,0,86.68-44.46,86.68-109.75S227.96,19.69,149.16,19.69c-32.65,0-59.1,16.33-82.74,34.34v139.03c0,38.27,48.97,87.24,99.62,87.24Z"/>
  <path d="M502.44,269.04v-101.31c-17.45,69.23-64.73,123.82-120.45,123.82-41.66,0-78.8-25.33-78.8-73.73,0-58.53,59.1-80.49,126.07-99.06l73.17-19.7c-2.82-54.59-30.95-79.92-78.8-79.92-33.77,0-66.42,15.76-94.56,50.09l-5.07-4.5C356.1,24.76,397.19.56,446.15.56c68.11,0,99.62,37.72,99.62,101.32v112.56c0,46.16,5.07,59.11,22.52,64.17v7.32h-48.97c-11.26,0-16.89-6.19-16.89-16.89ZM402.82,258.35c60.23,0,99.06-75.98,99.62-135.08v-16.89l-70.92,19.14c-41.65,11.82-86.68,30.4-86.11,76.55,0,36.59,25.33,56.29,57.41,56.29Z"/>
  <path d="M1377.42,153.65c0-91.75,69.24-153.1,148.03-153.1,70.92,0,112.01,46.16,113.7,99.62h-220.07c-1.13,8.44-1.69,16.89-1.69,25.89,0,77.11,47.85,130.02,121.01,130.02,43.34,0,74.3-19.7,100.19-48.97l5.07,5.07c-28.71,39.4-72.61,79.36-132.84,79.36s-133.39-45.03-133.39-137.9ZM1594.12,92.87c-5.63-37.71-36.02-82.17-87.24-82.17-47.84-.56-77.11,34.89-86.11,82.17h173.36Z"/>
  <path d="M1670.88,259.47c0-16.32,13.51-29.83,29.27-29.83s28.7,13.51,28.7,29.83-12.95,30.4-28.7,30.4-29.27-14.07-29.27-30.4Z"/>
  <path d="M1065.26.56c41.65,0,68.11,16.89,78.24,52.91,33.77-27.01,77.11-52.91,119.33-52.91,54.59,0,82.74,29.83,82.74,93.43v120.45c0,46.16,5.63,59.11,22.51,64.17v7.32h-88.93v-7.32c17.45-5.06,22.51-18.01,22.51-64.17v-110.31c0-55.72-20.26-84.99-64.16-84.99-32.08,0-61.35,17.44-92.31,41.65,2.25,9.56,3.38,20.82,3.38,33.21v120.45c0,46.16,5.06,59.11,22.51,64.17v7.32h-88.93v-7.32c16.89-5.06,22.51-18.01,22.51-64.17v-110.31c0-55.72-20.82-84.99-64.16-84.99-32.08,0-61.35,17.44-91.75,40.53v154.78c0,46.16,5.07,59.11,22.51,64.17v7.32h-88.93v-7.32c17.45-5.06,22.52-18.01,22.52-64.17v-108.96c-85.55,93.52-144.42,186.07-222.93,186.07-59.1,0-86.11-37.71-86.11-102.44v-104.12c0-39.4-7.32-45.03-22.51-51.79v-6.19L634.65,0l5.06,3.94v175.04c0,64.17,18.01,92.87,63.04,92.87,33.21,0,63.6-20.82,88.93-47.84V84.99c0-39.4-7.32-45.03-22.52-51.79v-6.19L830.52,0l5.07,3.94v170.98C927.41,68.6,988.25.56,1065.26.56Z"/>
</svg>